<mxfile host="Electron" modified="2023-08-25T15:22:28.413Z" agent="Mozilla/5.0 (X11; Linux x86_64) AppleWebKit/537.36 (KHTML, like Gecko) draw.io/21.6.8 Chrome/114.0.5735.289 Electron/25.5.0 Safari/537.36" etag="F0_-QbCbO6FLHPTL8TBq" version="21.6.8" type="device">
  <diagram name="Page-1" id="VTcgenG-z07J8Rnrmjg_">
    <mxGraphModel dx="1038" dy="498" grid="0" gridSize="10" guides="1" tooltips="1" connect="1" arrows="1" fold="1" page="1" pageScale="1" pageWidth="850" pageHeight="1100" math="0" shadow="0">
      <root>
        <mxCell id="0" />
        <mxCell id="1" parent="0" />
        <mxCell id="LW1EDTFQSBLYTUxW61iB-3" value="" style="rounded=0;whiteSpace=wrap;html=1;fillColor=#fff2cc;strokeColor=#d6b656;" vertex="1" parent="1">
          <mxGeometry x="240" y="240" width="240" height="120" as="geometry" />
        </mxCell>
        <mxCell id="LW1EDTFQSBLYTUxW61iB-4" value="ISA" style="rounded=1;whiteSpace=wrap;html=1;fillColor=#d5e8d4;strokeColor=#82b366;" vertex="1" parent="1">
          <mxGeometry x="240" y="280" width="120" height="80" as="geometry" />
        </mxCell>
        <mxCell id="LW1EDTFQSBLYTUxW61iB-5" value="Klib" style="rounded=1;whiteSpace=wrap;html=1;fillColor=#dae8fc;strokeColor=#6c8ebf;" vertex="1" parent="1">
          <mxGeometry x="360" y="280" width="120" height="80" as="geometry" />
        </mxCell>
        <mxCell id="LW1EDTFQSBLYTUxW61iB-6" value="" style="rounded=0;whiteSpace=wrap;html=1;fillColor=#e1d5e7;strokeColor=#9673a6;" vertex="1" parent="1">
          <mxGeometry x="240" y="400" width="240" height="120" as="geometry" />
        </mxCell>
        <mxCell id="LW1EDTFQSBLYTUxW61iB-7" value="NEMU" style="rounded=1;whiteSpace=wrap;html=1;fillColor=#d5e8d4;strokeColor=#82b366;" vertex="1" parent="1">
          <mxGeometry x="240" y="440" width="120" height="80" as="geometry" />
        </mxCell>
        <mxCell id="LW1EDTFQSBLYTUxW61iB-8" value="MCU" style="rounded=1;whiteSpace=wrap;html=1;fillColor=#dae8fc;strokeColor=#6c8ebf;" vertex="1" parent="1">
          <mxGeometry x="360" y="440" width="120" height="80" as="geometry" />
        </mxCell>
        <mxCell id="LW1EDTFQSBLYTUxW61iB-29" style="edgeStyle=orthogonalEdgeStyle;rounded=0;orthogonalLoop=1;jettySize=auto;html=1;exitX=0.5;exitY=0;exitDx=0;exitDy=0;entryX=0.5;entryY=1;entryDx=0;entryDy=0;" edge="1" parent="1" source="LW1EDTFQSBLYTUxW61iB-9" target="LW1EDTFQSBLYTUxW61iB-15">
          <mxGeometry relative="1" as="geometry" />
        </mxCell>
        <mxCell id="LW1EDTFQSBLYTUxW61iB-30" value="API" style="edgeLabel;html=1;align=center;verticalAlign=middle;resizable=0;points=[];" vertex="1" connectable="0" parent="LW1EDTFQSBLYTUxW61iB-29">
          <mxGeometry x="0.025" relative="1" as="geometry">
            <mxPoint as="offset" />
          </mxGeometry>
        </mxCell>
        <mxCell id="LW1EDTFQSBLYTUxW61iB-9" value="AM" style="text;html=1;strokeColor=none;fillColor=none;align=center;verticalAlign=middle;whiteSpace=wrap;rounded=0;" vertex="1" parent="1">
          <mxGeometry x="330" y="240" width="60" height="30" as="geometry" />
        </mxCell>
        <mxCell id="LW1EDTFQSBLYTUxW61iB-31" style="edgeStyle=orthogonalEdgeStyle;rounded=0;orthogonalLoop=1;jettySize=auto;html=1;exitX=0.5;exitY=0;exitDx=0;exitDy=0;entryX=0;entryY=1;entryDx=0;entryDy=0;" edge="1" parent="1" source="LW1EDTFQSBLYTUxW61iB-10" target="LW1EDTFQSBLYTUxW61iB-5">
          <mxGeometry relative="1" as="geometry" />
        </mxCell>
        <mxCell id="LW1EDTFQSBLYTUxW61iB-32" value="Hardware Support" style="edgeLabel;html=1;align=center;verticalAlign=middle;resizable=0;points=[];" vertex="1" connectable="0" parent="LW1EDTFQSBLYTUxW61iB-31">
          <mxGeometry x="-0.0167" y="-1" relative="1" as="geometry">
            <mxPoint as="offset" />
          </mxGeometry>
        </mxCell>
        <mxCell id="LW1EDTFQSBLYTUxW61iB-10" value="Hardware" style="text;html=1;strokeColor=none;fillColor=none;align=center;verticalAlign=middle;whiteSpace=wrap;rounded=0;" vertex="1" parent="1">
          <mxGeometry x="330" y="400" width="60" height="30" as="geometry" />
        </mxCell>
        <mxCell id="LW1EDTFQSBLYTUxW61iB-11" value="" style="rounded=0;whiteSpace=wrap;html=1;fillColor=#fff2cc;strokeColor=#d6b656;" vertex="1" parent="1">
          <mxGeometry x="240" y="80" width="240" height="120" as="geometry" />
        </mxCell>
        <mxCell id="LW1EDTFQSBLYTUxW61iB-12" value="microbench" style="rounded=1;whiteSpace=wrap;html=1;fillColor=#d5e8d4;strokeColor=#82b366;" vertex="1" parent="1">
          <mxGeometry x="240" y="120" width="80" height="80" as="geometry" />
        </mxCell>
        <mxCell id="LW1EDTFQSBLYTUxW61iB-13" value="dhrystone" style="rounded=1;whiteSpace=wrap;html=1;fillColor=#dae8fc;strokeColor=#6c8ebf;" vertex="1" parent="1">
          <mxGeometry x="400" y="120" width="80" height="80" as="geometry" />
        </mxCell>
        <mxCell id="LW1EDTFQSBLYTUxW61iB-14" value="benchmarks" style="text;html=1;strokeColor=none;fillColor=none;align=center;verticalAlign=middle;whiteSpace=wrap;rounded=0;" vertex="1" parent="1">
          <mxGeometry x="330" y="80" width="60" height="30" as="geometry" />
        </mxCell>
        <mxCell id="LW1EDTFQSBLYTUxW61iB-15" value="coremark" style="rounded=1;whiteSpace=wrap;html=1;fillColor=#e1d5e7;strokeColor=#9673a6;" vertex="1" parent="1">
          <mxGeometry x="320" y="120" width="80" height="80" as="geometry" />
        </mxCell>
        <mxCell id="LW1EDTFQSBLYTUxW61iB-18" value="" style="rounded=0;whiteSpace=wrap;html=1;fillColor=#f5f5f5;fontColor=#333333;strokeColor=#666666;" vertex="1" parent="1">
          <mxGeometry x="240" y="809" width="280" height="270" as="geometry" />
        </mxCell>
        <mxCell id="LW1EDTFQSBLYTUxW61iB-22" style="edgeStyle=orthogonalEdgeStyle;rounded=0;orthogonalLoop=1;jettySize=auto;html=1;exitX=0.5;exitY=1;exitDx=0;exitDy=0;entryX=0;entryY=0;entryDx=0;entryDy=0;" edge="1" parent="1" source="LW1EDTFQSBLYTUxW61iB-19" target="LW1EDTFQSBLYTUxW61iB-21">
          <mxGeometry relative="1" as="geometry" />
        </mxCell>
        <mxCell id="LW1EDTFQSBLYTUxW61iB-19" value="MCU" style="rounded=1;whiteSpace=wrap;html=1;fillColor=#d5e8d4;strokeColor=#82b366;" vertex="1" parent="1">
          <mxGeometry x="240" y="849" width="120" height="80" as="geometry" />
        </mxCell>
        <mxCell id="LW1EDTFQSBLYTUxW61iB-23" style="edgeStyle=orthogonalEdgeStyle;rounded=0;orthogonalLoop=1;jettySize=auto;html=1;exitX=0.5;exitY=1;exitDx=0;exitDy=0;entryX=1;entryY=0;entryDx=0;entryDy=0;" edge="1" parent="1" source="LW1EDTFQSBLYTUxW61iB-20" target="LW1EDTFQSBLYTUxW61iB-21">
          <mxGeometry relative="1" as="geometry" />
        </mxCell>
        <mxCell id="LW1EDTFQSBLYTUxW61iB-20" value="Golden Model" style="rounded=1;whiteSpace=wrap;html=1;fillColor=#f8cecc;strokeColor=#b85450;" vertex="1" parent="1">
          <mxGeometry x="400" y="849" width="120" height="80" as="geometry" />
        </mxCell>
        <mxCell id="LW1EDTFQSBLYTUxW61iB-21" value="Compare" style="rhombus;whiteSpace=wrap;html=1;fillColor=#ffe6cc;strokeColor=#d79b00;" vertex="1" parent="1">
          <mxGeometry x="340" y="959" width="80" height="80" as="geometry" />
        </mxCell>
        <mxCell id="LW1EDTFQSBLYTUxW61iB-26" style="edgeStyle=orthogonalEdgeStyle;rounded=0;orthogonalLoop=1;jettySize=auto;html=1;exitX=0.5;exitY=1;exitDx=0;exitDy=0;entryX=0.5;entryY=0;entryDx=0;entryDy=0;" edge="1" parent="1" source="LW1EDTFQSBLYTUxW61iB-25" target="LW1EDTFQSBLYTUxW61iB-18">
          <mxGeometry relative="1" as="geometry" />
        </mxCell>
        <mxCell id="LW1EDTFQSBLYTUxW61iB-27" value="bin" style="edgeLabel;html=1;align=center;verticalAlign=middle;resizable=0;points=[];" vertex="1" connectable="0" parent="LW1EDTFQSBLYTUxW61iB-26">
          <mxGeometry x="-0.25" y="-3" relative="1" as="geometry">
            <mxPoint x="3" y="14" as="offset" />
          </mxGeometry>
        </mxCell>
        <mxCell id="LW1EDTFQSBLYTUxW61iB-25" value="riscvtests&lt;br&gt;&amp;amp;&lt;br&gt;riscv-gcc" style="rounded=1;whiteSpace=wrap;html=1;fillColor=#dae8fc;strokeColor=#6c8ebf;" vertex="1" parent="1">
          <mxGeometry x="320" y="640" width="120" height="100" as="geometry" />
        </mxCell>
        <mxCell id="LW1EDTFQSBLYTUxW61iB-28" value="Difftest" style="text;html=1;strokeColor=none;fillColor=none;align=center;verticalAlign=middle;whiteSpace=wrap;rounded=0;" vertex="1" parent="1">
          <mxGeometry x="350" y="1049" width="60" height="30" as="geometry" />
        </mxCell>
      </root>
    </mxGraphModel>
  </diagram>
</mxfile>
